<svg width="32" height="32" viewBox="0 0 32 32" fill="none" xmlns="http://www.w3.org/2000/svg">
  <!-- Bug icon optimized for small sizes -->
  <circle cx="16" cy="16" r="16" fill="#0a0e1a"/>

  <!-- Bug body -->
  <ellipse cx="16" cy="17" rx="5" ry="6.5" fill="#14b8a6"/>

  <!-- Bug head -->
  <circle cx="16" cy="12" r="3.5" fill="#14b8a6"/>

  <!-- Antennas -->
  <path d="M 14 10.5 Q 13 9 12 8" stroke="#14b8a6" stroke-width="1.2" stroke-linecap="round" fill="none"/>
  <path d="M 18 10.5 Q 19 9 20 8" stroke="#14b8a6" stroke-width="1.2" stroke-linecap="round" fill="none"/>

  <!-- Antenna tips -->
  <circle cx="12" cy="8" r="1" fill="#5eead4"/>
  <circle cx="20" cy="8" r="1" fill="#5eead4"/>

  <!-- Eyes -->
  <circle cx="14.5" cy="11.8" r="0.8" fill="#0a0e1a" opacity="0.8"/>
  <circle cx="17.5" cy="11.8" r="0.8" fill="#0a0e1a" opacity="0.8"/>

  <!-- Legs (3 per side) -->
  <path d="M 12 15 L 8 16" stroke="#14b8a6" stroke-width="1.2" stroke-linecap="round"/>
  <path d="M 11.5 17.5 L 7 19" stroke="#14b8a6" stroke-width="1.2" stroke-linecap="round"/>
  <path d="M 12 20 L 8 22" stroke="#14b8a6" stroke-width="1.2" stroke-linecap="round"/>

  <path d="M 20 15 L 24 16" stroke="#14b8a6" stroke-width="1.2" stroke-linecap="round"/>
  <path d="M 20.5 17.5 L 25 19" stroke="#14b8a6" stroke-width="1.2" stroke-linecap="round"/>
  <path d="M 20 20 L 24 22" stroke="#14b8a6" stroke-width="1.2" stroke-linecap="round"/>

  <!-- Body segments -->
  <line x1="13" y1="15.5" x2="19" y2="15.5" stroke="#0a0e1a" stroke-width="0.5" opacity="0.3"/>
  <line x1="12.8" y1="17.5" x2="19.2" y2="17.5" stroke="#0a0e1a" stroke-width="0.5" opacity="0.3"/>
  <line x1="13" y1="19.5" x2="19" y2="19.5" stroke="#0a0e1a" stroke-width="0.5" opacity="0.3"/>
</svg>
